<svg width="1348" height="840" viewBox="0 0 1348 840" fill="none" xmlns="http://www.w3.org/2000/svg">
<path d="M156.5 439H296V522H30.5V449L142.5 346C162.167 327.667 176.333 313 185 302C193.333 290.667 197.5 279.167 197.5 267.5C197.5 255.167 193.667 245.5 186 238.5C178.333 231.5 168.667 228 157 228C145.333 228 134.833 231.833 125.5 239.5C115.833 246.833 109.5 257 106.5 270L23 260.5C28.6667 226.5 43.5 199.833 67.5 180.5C91.1667 160.833 123 151 163 151C204.333 152.333 234.833 163.833 254.5 185.5C274.167 207.167 284 231.833 284 259.5C284 283.5 278.167 304.667 266.5 323C254.5 341.667 235.5 363.167 209.5 387.5L156.5 439ZM492.336 528C441.003 527 403.336 508.333 379.336 472C355.669 436.333 344.003 390.167 344.336 333.5C344.003 279.833 356.003 236.167 380.336 202.5C404.336 169.167 441.669 152 492.336 151C543.003 152 580.003 169.333 603.336 203C626.669 236.667 638.169 280.167 637.836 333.5C638.169 392.167 626.169 439.5 601.836 475.5C578.503 509.5 542.003 527 492.336 528ZM492.336 444C514.336 444 529.669 435 538.336 417C547.003 398.667 551.336 371 551.336 334C551.336 301.333 546.503 276.667 536.836 260C527.169 243.333 512.336 235 492.336 235C471.669 235 456.336 243.5 446.336 260.5C436.003 277.167 430.836 301.667 430.836 334C430.836 370.667 435.503 398.167 444.836 416.5C454.169 434.833 470.003 444 492.336 444ZM982.332 378V459.5H937.332V522H850.832V459.5H690.332L675.332 378L836.332 157H937.332V378H982.332ZM772.832 378H850.832V270L772.832 378ZM1248.42 326.5C1265.75 334.5 1279.75 345.667 1290.42 360C1301.08 374.333 1306.42 391.5 1306.42 411.5C1306.42 446.833 1294.25 475.167 1269.92 496.5C1245.58 517.5 1210.92 528 1165.92 528C1121.25 528 1086.75 517.5 1062.42 496.5C1038.08 475.167 1025.92 446.833 1025.92 411.5C1025.92 394.167 1031.08 378 1041.42 363C1051.75 348 1064.92 336 1080.92 327C1065.25 317 1053.75 304.667 1046.42 290C1040.75 278.333 1037.92 265.167 1037.92 250.5C1037.92 223.167 1049.92 199.833 1073.92 180.5C1097.58 160.833 1128.25 151 1165.92 151C1206.25 151 1237.92 160.667 1260.92 180C1283.58 199.333 1294.92 222.833 1294.92 250.5C1294.92 267.833 1290.75 282.667 1282.42 295C1274.08 307.333 1262.75 317.833 1248.42 326.5ZM1165.92 222C1153.58 222 1143.25 225.667 1134.92 233C1126.25 240 1121.92 248.333 1121.92 258C1121.92 269.667 1125.75 279.167 1133.42 286.5C1141.08 293.833 1151.92 297.5 1165.92 297.5C1179.25 297.5 1190.08 293.833 1198.42 286.5C1206.75 278.833 1210.92 269.333 1210.92 258C1210.92 248 1206.58 239.5 1197.92 232.5C1189.25 225.5 1178.58 222 1165.92 222ZM1167.42 452.5C1183.75 452.5 1196.42 448 1205.42 439C1214.08 429.667 1218.42 417.333 1218.42 402C1218.42 389.667 1213.25 379.333 1202.92 371C1192.58 362.667 1180.25 358.5 1165.92 358.5C1152.25 358.5 1140.25 363 1129.92 372C1119.25 380.667 1113.92 391.167 1113.92 403.5C1113.92 418.167 1118.58 430 1127.92 439C1136.92 448 1150.08 452.5 1167.42 452.5Z" fill="black" fill-opacity="0.11"/>
<path d="M12 730.7L37.8 691.4C46 697 55.4 701.3 66 704.3C76.6 707.1 86 708.5 94.2 708.5C104 708.7 111.6 706.8 117 702.8C120.2 700.4 121.8 696.9 121.8 692.3C121.8 686.5 118.6 681.7 112.2 677.9C105.8 674.1 92.8 669 73.2 662.6C55 656.2 41 647.9 31.2 637.7C21.2 627.5 16.2 614 16.2 597.2C16.2 577.2 24.2 561.4 40.2 549.8C56.2 538.2 76 532.4 99.6 532.4C128.6 532.4 153.3 540 173.7 555.2L150.3 597.2C142.1 592 133.3 588.2 123.9 585.8C114.3 583.2 106.5 581.9 100.5 581.9C91.3 581.9 84.4 583.4 79.8 586.4C75 589.2 72.6 592.7 72.6 596.9C72.6 601.9 75.4 606 81 609.2C86.4 612.4 97.8 616.5 115.2 621.5C135.6 627.3 151 635.5 161.4 646.1C171.6 656.7 176.7 670.5 176.7 687.5C176.1 711.5 168.2 729.4 153 741.2C137.8 752.8 119.2 758.6 97.2 758.6C61.6 758.6 33.2 749.3 12 730.7ZM366.572 755L349.472 705.2H270.272L253.172 755H194.672L275.972 536H344.072L425.072 755H366.572ZM286.172 659.6H333.872L309.872 590.3L286.172 659.6ZM633.757 536H688.357V755H633.757V620L571.057 713.3H568.657L505.957 620V755H451.357V536H505.957L569.857 631.7L633.757 536ZM886.591 755L869.491 705.2H790.291L773.191 755H714.691L795.991 536H864.091L945.091 755H886.591ZM806.191 659.6H853.891L829.891 590.3L806.191 659.6ZM1094.38 755L1050.58 679.7H1025.98V755H971.377V536H1058.08C1086.08 536.8 1106.88 544.2 1120.48 558.2C1134.08 572.2 1140.88 588.5 1140.88 607.1C1140.88 620.1 1137.58 632.3 1130.98 643.7C1124.38 654.9 1114.78 663.7 1102.18 670.1L1152.28 755H1094.38ZM1025.98 582.8V632.9H1049.08C1061.68 632.9 1070.98 630.6 1076.98 626C1082.78 621.4 1085.68 615.1 1085.68 607.1C1085.68 600.1 1081.98 594.3 1074.58 589.7C1066.98 585.1 1056.98 582.8 1044.58 582.8H1025.98ZM1338.14 536V587.3H1273.64V755H1218.14V587.3H1153.34V536H1338.14Z" fill="black" fill-opacity="0.11"/>
</svg>
