<svg width="13" height="13" viewBox="0 0 13 13" fill="none" xmlns="http://www.w3.org/2000/svg">
<path d="M6.5 0.8125C8.10821 0.85475 9.44761 1.41118 10.5182 2.48178C11.5888 3.55239 12.1453 4.89179 12.1875 6.5C12.1453 8.10821 11.5888 9.44761 10.5182 10.5182C9.44761 11.5888 8.10821 12.1453 6.5 12.1875C4.89179 12.1453 3.55239 11.5888 2.48178 10.5182C1.41118 9.44761 0.85475 8.10821 0.8125 6.5C0.85475 4.89179 1.41118 3.55239 2.48178 2.48178C3.55239 1.41118 4.89179 0.85475 6.5 0.8125ZM5.78906 7.61719L4.53212 6.36025C4.43056 6.26708 4.31424 6.2205 4.18316 6.2205C4.05207 6.2205 3.93778 6.26911 3.84028 6.36634C3.74278 6.46357 3.69417 6.5757 3.69444 6.70272C3.69471 6.82974 3.74129 6.94403 3.83419 7.04559L5.44659 8.658C5.53976 8.75117 5.65405 8.79775 5.78947 8.79775C5.92489 8.79775 6.03918 8.75117 6.13234 8.658L9.47131 5.31903C9.59833 5.19201 9.63855 5.0375 9.59197 4.8555C9.54539 4.6735 9.43109 4.55921 9.24909 4.51262C9.06709 4.46604 8.91258 4.50626 8.78556 4.63328L5.78906 7.61719Z" fill="#C0C4CC"/>
</svg>
